<svg version="1.2" xmlns="http://www.w3.org/2000/svg" viewBox="0 0 700 700" width="700" height="700"><defs><clipPath clipPathUnits="userSpaceOnUse" id="cp1"><path d="m650 350c0 165.69-134.31 300-300 300-165.69 0-300-134.31-300-300 0-165.69 134.31-300 300-300 165.69 0 300 134.31 300 300z"/></clipPath></defs><style>.a{fill:#f6a}.b{fill:#f1f1f2}.c{fill:#231f20}.d{fill:#808184}.e{fill:#929497}.f{fill:#636466}.g{fill:#59595c}.h{fill:#a7a8ab}.i{fill:#6d6e70}.j{fill:#221f1f}.k{fill:#404041}.l{fill:#58595b}.m{fill:#bbbdbf}.n{fill:#fff}.o{fill:#a6a8ab}.p{fill:#e6e7e8}.q{fill:#d0d2d3}</style><path class="a" d="m637.3 350c0 158.7-128.6 287.3-287.3 287.3-158.7 0-287.3-128.6-287.3-287.3 0-158.7 128.6-287.3 287.3-287.3 158.7 0 287.3 128.6 287.3 287.3z"/><g clip-path="url(#cp1)" style="opacity:.15"><path class="b" d="m-162.4 673.7l512.4-887.5 512.4 887.5z"/><path class="c" d="m137.6 887.5l512.4-887.5 512.4 887.5z"/><path class="d" d="m-819.6 726.9l512.4-887.5 512.3 887.5z"/><path class="e" d="m122.9 316.3l512.4-887.4 512.3 887.4z"/><path class="f" d="m-444.8 760.1l512.4-887.5 512.4 887.5z"/><path class="g" d="m-200.1 1293.8l512.4-887.5 512.3 887.5z"/><path class="h" d="m-329.7 294.5l194.6-337 194.5 337z"/><path class="h" d="m-166.8 1047.7l194.5-337.1 194.6 337.1z"/><path class="i" d="m268.6 441.6l194.6-337 194.6 337z"/><path class="h" d="m597.3 971.4l194.6-337 194.6 337z"/><path class="g" d="m216.7 1242.9l97.3-168.5 97.3 168.5z"/><path class="j" d="m557.3 611.9l97.3-168.5 97.3 168.5z"/><path class="j" d="m92.4 800l194.6-337 194.6 337z"/><path class="d" d="m217.6-173.3l-144.6 250.4h389.2l-144.6-250.4z"/><path class="d" d="m644.1-173.3l-47.3 81.9h194.6l-47.3-81.9z"/><path class="k" d="m70.6 665l194.6-337 194.6 337z"/><path class="d" d="m472.1 738.5l194.6-337 194.6 337z"/><path class="g" d="m-103.8 857.6l96.2-166.6 96.2 166.6z"/><path class="l" d="m246.5 209.5l96.2-166.6 96.2 166.6z"/><path class="j" d="m566 180.4l96.2-166.6 96.2 166.6z"/><path class="d" d="m-123.7 663.1l48.1-83.3 48.1 83.3z"/><path class="g" d="m264.9 1243.1l48.1-83.3 48.1 83.3z"/><path class="g" d="m433.3 931.2l48.1-83.3 48.1 83.3z"/><path class="k" d="m394.3 519.4l96.2-166.6 96.2 166.6z"/><path class="b" d="m566 478.6l96.2-166.6 96.2 166.6z"/><path class="h" d="m-99.1 157.5l96.2-166.6 96.2 166.6z"/><path class="h" d="m-195.9 450.7l96.2-166.6 96.2 166.6z"/><path class="d" d="m576.4-39.9l48.1-83.3 48.1 83.3z"/><path class="m" d="m374.4 232.4l48.1-83.3 48.1 83.3z"/><path class="n" d="m463.8 127.7l12.8-22.2 12.7 22.2z"/><path class="i" d="m57.8 235.6l96.2-166.6 96.1 166.6z"/><path class="o" d="m221.6 663.8l96.1-166.6 96.2 166.6z"/><path class="c" d="m214 526.1l36.1-62.6 36.2 62.6z"/><path class="h" d="m427.9 570.5l48.1-83.3 48.1 83.3z"/><path class="h" d="m417.1 334.4l48.1-83.3 48.1 83.3z"/><path class="b" d="m451.9 205.6l96.2-166.6 96.2 166.6z"/><path class="o" d="m2.5 287.1l96.2-166.6 96.2 166.6z"/><path class="g" d="m28 544.4l36.6-63.5 36.7 63.5z"/><path class="o" d="m530.7 461.1l36.7-63.4 36.6 63.4z"/><path class="n" d="m313.3 169.7l36.7-63.5 36.7 63.5z"/><path class="l" d="m313.3 564.1l36.7-63.5 36.7 63.5z"/><path class="g" d="m-39.4 175.9l36.7-63.5 36.6 63.5z"/><path class="g" d="m476.8 720.5l36.6-63.5 36.7 63.5z"/><path class="d" d="m614.9 271.2l36.7-63.5 36.7 63.5z"/><path class="m" d="m90.6 466.2l36.7-63.5 36.6 63.5z"/><path class="b" d="m144.6 590.2l36.7-63.5 36.6 63.5z"/><path class="b" d="m55.3 335.4l36.6-63.5 36.7 63.5z"/><path class="g" d="m227.3 247.5l18.4-31.8 18.3 31.8z"/><path class="m" d="m101.5 305.9l18.3-31.8 18.4 31.8z"/><path class="p" d="m215.5 168.8l18.3-31.7 18.3 31.7z"/><path class="j" d="m137.9 720.5l36.7-63.5 36.6 63.5z"/><path class="g" d="m224.3 838.3l36.7-63.5 36.6 63.5z"/><path class="g" d="m1033.5 576.1l36.6-63.5 36.7 63.5z"/><path class="d" d="m375.4 123.7l36.7-63.4 36.6 63.4z"/><path class="n" d="m566.7 256.4l36.7-63.5 36.6 63.5z"/><path class="g" d="m633.3 1244.1l18.3-31.7 18.3 31.7z"/><path class="h" d="m524.8 822.5l18.3-31.8 18.4 31.8z"/><path class="g" d="m1155.1 788.7l18.3-31.7 18.3 31.7z"/><path class="d" d="m-194.8 679.9l36.7-63.5 36.6 63.5z"/><path class="d" d="m555.5 630.9l36.6-63.5 36.7 63.5z"/><path class="h" d="m573.8 537.2l18.3-31.8 18.4 31.8z"/><path class="q" d="m420.1 257.1l21.9-37.9 21.9 37.9z"/><path class="d" d="m189.7-82.2l18.4-31.7 18.3 31.7z"/><path class="g" d="m773.4 243.8l36.6-63.5 36.7 63.5z"/><path class="g" d="m926.1 673.6l18.3-31.7 18.3 31.7z"/></g><path fill-rule="evenodd" class="n" d="m650 350c0 165.7-134.3 300-300 300-165.7 0-300-134.3-300-300 0-165.7 134.3-300 300-300 165.7 0 300 134.3 300 300zm-30 0c0-149.1-120.9-270-270-270-149.1 0-270 120.9-270 270 0 149.1 120.9 270 270 270 149.1 0 270-120.9 270-270z"/><path class="n" d="m256 213.1c-5.2 0.4-13.8 1.3-19 1.9-5.2 0.6-14.2 1.8-20 2.6-5.8 0.8-16.1 2.6-23 4-6.9 1.4-15.9 3.4-20 4.5-4.1 1.1-10.2 2.8-13.5 3.9-3.3 1.1-7.8 3.5-10 5.3-2.2 1.8-5.2 5.8-6.8 8.8-2.2 4.3-2.7 6.7-2.7 11.9 0 3.6 0.6 8.3 1.3 10.4 0.6 2.2 3 6 5.3 8.5 2.2 2.5 6.2 5.6 8.7 6.9 3.3 1.5 6.5 2.2 10.7 2.2 3.6 0 12.5-1.6 22.3-4 8.9-2.2 20.3-4.6 25.2-5.5 4.9-0.9 13.9-2.2 20-3 6.1-0.7 16.6-1.9 23.5-2.5 6.9-0.7 26.2-1.2 43-1.2 16.8 0 35.9 0.5 42.5 1.1 6.6 0.6 16.3 1.6 21.5 2.2 5.2 0.6 15.1 2 22 3 6.9 1.1 14.8 2.4 17.5 3 2.8 0.6 7.9 1.7 11.5 2.5 3.6 0.8 11 2.6 16.5 4 5.5 1.4 14.9 4.1 21 6.1 6.1 2 16.4 5.7 23 8.3 6.6 2.6 15.6 6.5 20 8.7 4.4 2.1 12.1 6.1 17 8.8 6.7 3.6 10.4 4.9 14.5 5.3 3.8 0.3 7.4-0.1 11.4-1.4 3.4-1.1 7.7-3.4 10-5.5 2.3-1.9 5.1-5.8 6.3-8.5 1.2-2.7 2.5-6.7 2.9-8.9 0.3-2.2 0.1-6.2-0.5-9-0.6-2.7-2.4-7-4-9.5-1.6-2.5-5.3-6.1-8.3-8.1-2.9-1.9-11.2-6.5-18.3-10.1-7.1-3.6-17.7-8.6-23.5-11.1-5.8-2.4-17.9-6.9-27-10-9.1-3-22.6-7.1-30-9-7.4-1.9-20.2-4.9-28.5-6.6-8.2-1.6-19.9-3.7-26-4.6-6.1-0.9-14.4-2-18.5-2.6-4.1-0.5-15.6-1.6-25.5-2.4-11.6-1-29.5-1.4-50.5-1.4-17.9 0.1-36.8 0.5-42 1zm11.5 196c-5.5 0.4-14.5 1.3-20 1.9-5.5 0.6-12.9 1.6-16.5 2.2-3.6 0.5-11.4 1.8-17.5 2.9-6.1 1.1-15.3 2.9-20.5 4-5.8 1.3-10.8 3.1-12.7 4.5-1.8 1.3-4.2 3.9-5.3 5.7-1.4 2.3-2 4.9-2 9.2 0.1 4.3 0.7 7.1 2.3 9.9 1.2 2.1 4 4.9 6.2 6.2q4 2.4 8.8 2.4c2.6 0 11.3-1.3 19.5-3 8.1-1.6 19.6-3.6 25.7-4.5 6.1-0.9 17.5-2.3 25.5-3.1 8-0.7 24.9-1.4 37.5-1.4 13 0 28.4 0.6 35.5 1.4 6.9 0.8 14.3 1.7 16.5 2.1 2.2 0.4 8.5 1.6 14 2.7 5.5 1.1 13.4 2.9 17.5 3.9 4.1 1.1 10.6 3.1 14.5 4.4 3.9 1.3 11.6 4.2 17.3 6.4 5.6 2.3 14.6 6.3 20 9.1 5.3 2.7 13.1 6.8 17.2 9.1 6.7 3.6 8.1 4.1 12.5 3.6 2.8-0.2 6.7-1.5 9-2.9 2.5-1.5 4.8-4.1 6.2-6.9 1.3-2.4 2.3-6.2 2.3-8.4 0-2.2-0.6-5.6-1.4-7.5-0.8-1.9-2.5-4.5-3.8-5.7-1.2-1.2-4.8-3.7-7.8-5.5-3-1.9-10.9-6.1-17.5-9.5-6.6-3.3-17.2-8.1-23.5-10.6-6.3-2.5-13.5-5.2-16-6-2.5-0.9-9.2-2.9-15-4.5-5.8-1.6-12.5-3.5-15-4.1-2.5-0.6-7.9-1.7-12-2.5-4.1-0.9-10.9-2-15-2.6-4.1-0.6-14.5-1.7-23-2.5-8.5-0.8-24.1-1.4-34.5-1.4-10.4 0.1-23.5 0.5-29 1zm3-96c-7.1 0.4-17.7 1.3-23.5 1.9-5.8 0.6-13.4 1.6-17 2.2-3.6 0.5-9.9 1.6-14 2.4-4.1 0.8-10.7 2.2-14.5 3-3.8 0.9-11.7 2.9-17.5 4.6-5.8 1.7-11.8 4-13.5 5.1-1.7 1.2-3.6 2.8-4.3 3.7-0.7 0.8-2.2 3.3-3.4 5.5-1.4 2.6-2.1 5.9-2.2 9.5 0 3 0.6 7.1 1.3 9 0.8 1.9 3 5.2 5 7.3 2 2.1 4.9 4.4 6.6 5.1 1.7 0.7 4.8 1.6 7 2 2.2 0.4 5.8 0.3 8-0.2 2.2-0.6 9.2-2.4 15.5-4 6.3-1.7 16.9-4 23.5-5.1 6.6-1.2 18.3-2.9 26-3.7 9.4-1.1 22.7-1.6 40.5-1.6 17.8 0 31.3 0.5 41 1.6 8 0.9 18.8 2.3 24 3.2 5.2 0.8 12.6 2.2 16.5 2.9 3.9 0.8 12.2 2.7 18.5 4.4 6.3 1.6 16 4.4 21.5 6.1 5.5 1.8 15.6 5.4 22.5 8.2 6.9 2.7 17.4 7.4 23.5 10.5 6.1 3 14.1 7.4 18 9.7 5.9 3.5 7.9 4.1 13.5 4.4 5.5 0.3 7.3-0.1 12-2.5 3.4-1.7 6.5-4.3 8.2-6.8 1.6-2.2 3.2-6 3.7-8.5 0.5-2.6 0.5-6.6-0.1-9.5-0.4-2.7-2-6.7-3.3-8.7-1.4-2.1-5.1-5.5-8.2-7.5-3.2-2-12.5-7.1-20.8-11.3-8.2-4.2-22-10.4-30.5-13.7-8.5-3.4-19.8-7.5-25-9.1-5.2-1.7-12.6-4-16.5-5.1-3.9-1-13.3-3.3-21-4.9-7.7-1.7-16.7-3.5-20-4.1-3.3-0.6-9.1-1.5-13-2-3.9-0.6-11.1-1.5-16-2.1-4.9-0.5-17.1-1.4-27-2-9.9-0.6-21.1-0.9-25-0.9-3.9 0.1-12.9 0.5-20 1z"/></svg>